<svg viewBox="0 0 256 256" fill="none" xmlns="http://www.w3.org/2000/svg">
  <title>Waveary logo mark</title>
  <desc>Hand-drawn echo ring with an open wave stroke.</desc>
  <path
    d="M37 126.8C37 73.5 79.7 32 132.6 32C157.8 32 182.3 41.8 200.3 58.6C213.2 70.7 222.2 87 225.8 104.8"
    stroke="#111111"
    stroke-width="14"
    stroke-linecap="round"
    stroke-linejoin="round"
  />
  <path
    d="M218.8 128.9C217 182.2 174.7 224 122 224C98.2 224 75.1 215.2 57.4 199.3C43.8 187 34.5 170 30.7 150.5"
    stroke="#111111"
    stroke-width="14"
    stroke-linecap="round"
    stroke-linejoin="round"
  />
  <path
    d="M58.1 112.7C68.3 84.1 95.7 63.7 127 63.7C146.8 63.7 165.4 72.1 178.4 86.2"
    stroke="#111111"
    stroke-width="8.5"
    stroke-linecap="round"
    stroke-linejoin="round"
    opacity="0.96"
  />
  <path
    d="M193 112.5C194.3 118.2 195 124.1 195 130.1C195 167.5 164.7 197.8 127.3 197.8C101.6 197.8 78.5 183.4 67 160.6"
    stroke="#111111"
    stroke-width="8.5"
    stroke-linecap="round"
    stroke-linejoin="round"
    opacity="0.96"
  />
  <path
    d="M79 140.4C82.6 117.4 95.1 104.2 110 104.2C122.1 104.2 125.8 116.4 125.8 136.8C125.8 156.1 128.6 164.7 136 164.7C144.9 164.7 149.5 141.1 151.7 125.9C154 110.8 158.4 95.1 170.7 95.1C182.6 95.1 190 109.3 190 131.5"
    stroke="#111111"
    stroke-width="15"
    stroke-linecap="round"
    stroke-linejoin="round"
  />
</svg>
