<svg viewBox="0 0 940 280" fill="none" xmlns="http://www.w3.org/2000/svg">
  <title>Waveary logo lockup</title>
  <desc>Waveary wordmark with the echo-ring symbol and bilingual strapline.</desc>
  <g transform="translate(18 12)">
    <path
      d="M188.5 41.5C152.4 31.5 111.9 34.6 78.4 53.9C45.1 73.2 21.4 107.1 14.5 145C7.5 182.9 18.1 221.7 43.6 251.5C55.7 205 98.5 170.6 148.8 170.6C169.8 170.6 189.6 176.6 206.5 187.1C200.9 171.2 198 154.3 198 137.2C198 102 210.5 69.6 233.4 44.4C219.5 45.1 203.6 45.7 188.5 41.5Z"
      fill="#111111"
    />
    <path
      d="M152.9 58.2C126.9 53 99.5 57.8 77.1 71.8C54.6 85.9 38.8 108 32.8 133.5C26.8 159.1 31.1 186 44.9 208.6C60.8 176.9 94.3 155.7 132.8 155.7C148.6 155.7 163.6 159.3 177.2 165.8C170.1 150.9 166.1 134.3 166.1 116.8C166.1 94.1 172.8 72.8 184.4 54.8C174.4 60.2 163.9 60.4 152.9 58.2Z"
      fill="#111111"
    />
    <path
      d="M146 76.3C147.9 100.7 161.5 114.3 186 116.1C161.5 118 147.9 131.6 146 156C144.1 131.6 130.5 118 106 116.1C130.5 114.3 144.1 100.7 146 76.3Z"
      fill="#111111"
    />
  </g>
  <text
    x="292"
    y="110"
    fill="#111111"
    font-family="'Iowan Old Style', 'Palatino Linotype', 'Times New Roman', serif"
    font-size="64"
    font-weight="600"
    letter-spacing="2.8"
  >
    Waveary
  </text>
  <text
    x="294"
    y="152"
    fill="#555555"
    font-family="'Segoe UI', sans-serif"
    font-size="18"
    letter-spacing="4.1"
  >
    DIGITAL LIFE COMPANION FRAMEWORK
  </text>
  <text
    x="292"
    y="207"
    fill="#1A1816"
    font-family="'Noto Serif SC', 'Songti SC', 'SimSun', serif"
    font-size="28"
    font-weight="600"
  >
    &#22238;&#21709;&#20043;&#22659;
  </text>
  <text
    x="294"
    y="244"
    fill="#555555"
    font-family="'Noto Serif SC', 'Songti SC', 'SimSun', serif"
    font-size="21"
  >
    &#24565;&#24565;&#19981;&#24536;&#65292;&#32456;&#26377;&#22238;&#21709;&#12290;
  </text>
</svg>
